<mxfile host="app.diagrams.net" modified="2023-04-24T16:01:12.163Z" agent="Mozilla/5.0 (Windows NT 10.0; Win64; x64) AppleWebKit/537.36 (KHTML, like Gecko) Chrome/112.0.0.0 Safari/537.36" etag="KzWciYYefBLeCesUe5E-" version="21.2.1" type="github">
  <diagram id="C5RBs43oDa-KdzZeNtuy" name="Page-1">
    <mxGraphModel dx="1050" dy="515" grid="1" gridSize="15" guides="1" tooltips="1" connect="1" arrows="1" fold="1" page="1" pageScale="1" pageWidth="827" pageHeight="1169" math="0" shadow="0">
      <root>
        <mxCell id="WIyWlLk6GJQsqaUBKTNV-0" />
        <mxCell id="WIyWlLk6GJQsqaUBKTNV-1" parent="WIyWlLk6GJQsqaUBKTNV-0" />
        <mxCell id="fsNQUk1PU2tjOLRftZXE-10" value="&lt;b&gt;NewsFeed&lt;/b&gt;" style="swimlane;fontStyle=0;childLayout=stackLayout;horizontal=1;startSize=26;fillColor=#ffe6cc;horizontalStack=0;resizeParent=1;resizeParentMax=0;resizeLast=0;collapsible=1;marginBottom=0;whiteSpace=wrap;html=1;strokeColor=#d79b00;" parent="WIyWlLk6GJQsqaUBKTNV-1" vertex="1">
          <mxGeometry x="370" y="430" width="300" height="296" as="geometry" />
        </mxCell>
        <mxCell id="fsNQUk1PU2tjOLRftZXE-11" value="-users:List" style="text;strokeColor=#6c8ebf;fillColor=#dae8fc;align=left;verticalAlign=top;spacingLeft=4;spacingRight=4;overflow=hidden;rotatable=0;points=[[0,0.5],[1,0.5]];portConstraint=eastwest;whiteSpace=wrap;html=1;" parent="fsNQUk1PU2tjOLRftZXE-10" vertex="1">
          <mxGeometry y="26" width="300" height="26" as="geometry" />
        </mxCell>
        <mxCell id="fsNQUk1PU2tjOLRftZXE-12" value="-sessions:Map" style="text;strokeColor=#6c8ebf;fillColor=#dae8fc;align=left;verticalAlign=top;spacingLeft=4;spacingRight=4;overflow=hidden;rotatable=0;points=[[0,0.5],[1,0.5]];portConstraint=eastwest;whiteSpace=wrap;html=1;" parent="fsNQUk1PU2tjOLRftZXE-10" vertex="1">
          <mxGeometry y="52" width="300" height="26" as="geometry" />
        </mxCell>
        <mxCell id="fsNQUk1PU2tjOLRftZXE-14" value="" style="line;strokeWidth=1;fillColor=none;align=left;verticalAlign=middle;spacingTop=-1;spacingLeft=3;spacingRight=3;rotatable=0;labelPosition=right;points=[];portConstraint=eastwest;strokeColor=inherit;" parent="fsNQUk1PU2tjOLRftZXE-10" vertex="1">
          <mxGeometry y="78" width="300" height="8" as="geometry" />
        </mxCell>
        <mxCell id="fsNQUk1PU2tjOLRftZXE-13" value="&lt;div&gt;&amp;nbsp;+ signup(username: String, password: String): void&amp;nbsp;&lt;/div&gt;&lt;div&gt;&amp;nbsp;+ login(username: String, password: String): void&amp;nbsp;&lt;/div&gt;&lt;div&gt;&amp;nbsp;+ post(user: User, content: String): void&amp;nbsp;&lt;/div&gt;&lt;div&gt;&amp;nbsp;+ follow(follower: User, followed: User): void&amp;nbsp;&lt;/div&gt;&lt;div&gt;&amp;nbsp;+ reply(user: User, postId: int, content: String): void&amp;nbsp;&lt;/div&gt;&lt;div&gt;&amp;nbsp;+ upvote(user: User, postId: int): void&amp;nbsp;&lt;/div&gt;&lt;div&gt;&amp;nbsp;+ downvote(user: User, postId: int): void&amp;nbsp;&lt;/div&gt;&lt;div&gt;&amp;nbsp;+ upvoteComment(user: User, commentId: int): void&amp;nbsp;&lt;/div&gt;&lt;div&gt;&amp;nbsp;+ downvoteComment(user: User, commentId: int): void&amp;nbsp;&lt;/div&gt;&lt;div&gt;&amp;nbsp;+ getNewsFeed(user: User, sortBy: String): List&amp;lt;Post&amp;gt;&amp;nbsp;&lt;/div&gt;&lt;div&gt;- getSortComparator(sortBy: String): Comparator&amp;lt;Post&amp;gt;&amp;nbsp;&lt;/div&gt;" style="text;strokeColor=#82b366;fillColor=#d5e8d4;align=left;verticalAlign=top;spacingLeft=4;spacingRight=4;overflow=hidden;rotatable=0;points=[[0,0.5],[1,0.5]];portConstraint=eastwest;whiteSpace=wrap;html=1;" parent="fsNQUk1PU2tjOLRftZXE-10" vertex="1">
          <mxGeometry y="86" width="300" height="210" as="geometry" />
        </mxCell>
        <mxCell id="fsNQUk1PU2tjOLRftZXE-20" value="User" style="swimlane;fontStyle=1;align=center;verticalAlign=top;childLayout=stackLayout;horizontal=1;startSize=26;horizontalStack=0;resizeParent=1;resizeParentMax=0;resizeLast=0;collapsible=1;marginBottom=0;whiteSpace=wrap;html=1;fillColor=#ffe6cc;strokeColor=#d79b00;" parent="WIyWlLk6GJQsqaUBKTNV-1" vertex="1">
          <mxGeometry x="380" y="790" width="160" height="340" as="geometry" />
        </mxCell>
        <mxCell id="fsNQUk1PU2tjOLRftZXE-21" value="&lt;div&gt;&amp;nbsp;- id: int&amp;nbsp; &amp;nbsp; &amp;nbsp; &amp;nbsp;&lt;/div&gt;&lt;div&gt;&amp;nbsp;- username: String&amp;nbsp;&lt;/div&gt;&lt;div&gt;&amp;nbsp;- password: String&amp;nbsp;&lt;/div&gt;&lt;div&gt;&amp;nbsp;- posts: List&amp;lt;Post&amp;gt;&amp;nbsp;&lt;/div&gt;&lt;div&gt;&amp;nbsp;- followedUsers: Set&amp;lt;User&amp;gt;&amp;nbsp;&lt;/div&gt;" style="text;strokeColor=#6c8ebf;fillColor=#dae8fc;align=left;verticalAlign=top;spacingLeft=4;spacingRight=4;overflow=hidden;rotatable=0;points=[[0,0.5],[1,0.5]];portConstraint=eastwest;whiteSpace=wrap;html=1;" parent="fsNQUk1PU2tjOLRftZXE-20" vertex="1">
          <mxGeometry y="26" width="160" height="114" as="geometry" />
        </mxCell>
        <mxCell id="fsNQUk1PU2tjOLRftZXE-22" value="" style="line;strokeWidth=1;fillColor=none;align=left;verticalAlign=middle;spacingTop=-1;spacingLeft=3;spacingRight=3;rotatable=0;labelPosition=right;points=[];portConstraint=eastwest;strokeColor=inherit;" parent="fsNQUk1PU2tjOLRftZXE-20" vertex="1">
          <mxGeometry y="140" width="160" height="8" as="geometry" />
        </mxCell>
        <mxCell id="fsNQUk1PU2tjOLRftZXE-23" value="&lt;div&gt;+ getId(): int&amp;nbsp;&lt;/div&gt;&lt;div&gt;&amp;nbsp;+ getUsername(): String&amp;nbsp;&lt;/div&gt;&lt;div&gt;&amp;nbsp;+ getPassword(): String&amp;nbsp;&lt;/div&gt;&lt;div&gt;&amp;nbsp;+ addPost(post: Post): void&amp;nbsp;&lt;/div&gt;&lt;div&gt;&amp;nbsp;+ getPosts(): List&amp;lt;Post&amp;gt;&amp;nbsp;&lt;/div&gt;&lt;div&gt;&amp;nbsp;+ follow(user: User): void&amp;nbsp;&lt;/div&gt;&lt;div&gt;&amp;nbsp;+ unfollow(user: User): void&amp;nbsp;&lt;/div&gt;&lt;div&gt;&amp;nbsp;+ getFollowedUsers(): Set&amp;lt;User&amp;gt;&lt;/div&gt;" style="text;strokeColor=#82b366;fillColor=#d5e8d4;align=left;verticalAlign=top;spacingLeft=4;spacingRight=4;overflow=hidden;rotatable=0;points=[[0,0.5],[1,0.5]];portConstraint=eastwest;whiteSpace=wrap;html=1;" parent="fsNQUk1PU2tjOLRftZXE-20" vertex="1">
          <mxGeometry y="148" width="160" height="192" as="geometry" />
        </mxCell>
        <mxCell id="fsNQUk1PU2tjOLRftZXE-24" value="Post" style="swimlane;fontStyle=1;align=center;verticalAlign=top;childLayout=stackLayout;horizontal=1;startSize=26;horizontalStack=0;resizeParent=1;resizeParentMax=0;resizeLast=0;collapsible=1;marginBottom=0;whiteSpace=wrap;html=1;fillColor=#ffe6cc;strokeColor=#d79b00;" parent="WIyWlLk6GJQsqaUBKTNV-1" vertex="1">
          <mxGeometry x="390" y="1200" width="160" height="370" as="geometry" />
        </mxCell>
        <mxCell id="fsNQUk1PU2tjOLRftZXE-25" value="- id: int       &#xa; - content: String &#xa; - timestamp: long &#xa; - user: User    &#xa; - comments: List&lt;Comment&gt; &#xa; - upvotes: int   &#xa; - downvotes: int" style="text;strokeColor=#6c8ebf;fillColor=#dae8fc;align=left;verticalAlign=top;spacingLeft=4;spacingRight=4;overflow=hidden;rotatable=0;points=[[0,0.5],[1,0.5]];portConstraint=eastwest;whiteSpace=wrap;html=1;" parent="fsNQUk1PU2tjOLRftZXE-24" vertex="1">
          <mxGeometry y="26" width="160" height="134" as="geometry" />
        </mxCell>
        <mxCell id="fsNQUk1PU2tjOLRftZXE-26" value="" style="line;strokeWidth=1;fillColor=none;align=left;verticalAlign=middle;spacingTop=-1;spacingLeft=3;spacingRight=3;rotatable=0;labelPosition=right;points=[];portConstraint=eastwest;strokeColor=inherit;" parent="fsNQUk1PU2tjOLRftZXE-24" vertex="1">
          <mxGeometry y="160" width="160" height="8" as="geometry" />
        </mxCell>
        <mxCell id="fsNQUk1PU2tjOLRftZXE-27" value="+ getId(): int &#xa; + getContent(): String &#xa; + getTimestamp(): long &#xa; + getUser(): User &#xa; + addComment(comment: Comment): void &#xa; + getComments(): List&lt;Comment&gt; &#xa; + getUpvotes(): int &#xa; + getDownvotes(): int &#xa; + upvote(): void &#xa; + downvote(): void" style="text;strokeColor=#82b366;fillColor=#d5e8d4;align=left;verticalAlign=top;spacingLeft=4;spacingRight=4;overflow=hidden;rotatable=0;points=[[0,0.5],[1,0.5]];portConstraint=eastwest;whiteSpace=wrap;html=1;" parent="fsNQUk1PU2tjOLRftZXE-24" vertex="1">
          <mxGeometry y="168" width="160" height="202" as="geometry" />
        </mxCell>
        <mxCell id="fsNQUk1PU2tjOLRftZXE-36" value="Comment" style="swimlane;fontStyle=1;align=center;verticalAlign=top;childLayout=stackLayout;horizontal=1;startSize=26;horizontalStack=0;resizeParent=1;resizeParentMax=0;resizeLast=0;collapsible=1;marginBottom=0;whiteSpace=wrap;html=1;fillColor=#ffe6cc;strokeColor=#d79b00;" parent="WIyWlLk6GJQsqaUBKTNV-1" vertex="1">
          <mxGeometry x="390" y="1610" width="160" height="375" as="geometry" />
        </mxCell>
        <mxCell id="fsNQUk1PU2tjOLRftZXE-37" value="- id: int       &#xa; - content: String &#xa; - timestamp: long &#xa; - user: User    &#xa; - post: Post    &#xa; - upvotes: int   &#xa; - downvotes: int" style="text;strokeColor=#6c8ebf;fillColor=#dae8fc;align=left;verticalAlign=top;spacingLeft=4;spacingRight=4;overflow=hidden;rotatable=0;points=[[0,0.5],[1,0.5]];portConstraint=eastwest;whiteSpace=wrap;html=1;" parent="fsNQUk1PU2tjOLRftZXE-36" vertex="1">
          <mxGeometry y="26" width="160" height="124" as="geometry" />
        </mxCell>
        <mxCell id="fsNQUk1PU2tjOLRftZXE-38" value="" style="line;strokeWidth=1;fillColor=none;align=left;verticalAlign=middle;spacingTop=-1;spacingLeft=3;spacingRight=3;rotatable=0;labelPosition=right;points=[];portConstraint=eastwest;strokeColor=inherit;" parent="fsNQUk1PU2tjOLRftZXE-36" vertex="1">
          <mxGeometry y="150" width="160" height="15" as="geometry" />
        </mxCell>
        <mxCell id="fsNQUk1PU2tjOLRftZXE-39" value="&lt;div&gt;&amp;nbsp;+ getId(): int&amp;nbsp;&lt;/div&gt;&lt;div&gt;&amp;nbsp;+ getContent(): String&amp;nbsp;&lt;/div&gt;&lt;div&gt;&amp;nbsp;+ getTimestamp(): long&amp;nbsp;&lt;/div&gt;&lt;div&gt;&amp;nbsp;+ getUser(): User&amp;nbsp;&lt;/div&gt;&lt;div&gt;&amp;nbsp;+ getPost(): Post&amp;nbsp;&lt;/div&gt;&lt;div&gt;&amp;nbsp;+ getUpvotes(): int&amp;nbsp;&lt;/div&gt;&lt;div&gt;&amp;nbsp;+ getDownvotes(): int&amp;nbsp;&lt;/div&gt;&lt;div&gt;&amp;nbsp;+ upvote(): void&amp;nbsp;&lt;/div&gt;&lt;div&gt;&amp;nbsp;+ downvote(): void&amp;nbsp;&lt;/div&gt;" style="text;strokeColor=#82b366;fillColor=#d5e8d4;align=left;verticalAlign=top;spacingLeft=4;spacingRight=4;overflow=hidden;rotatable=0;points=[[0,0.5],[1,0.5]];portConstraint=eastwest;whiteSpace=wrap;html=1;" parent="fsNQUk1PU2tjOLRftZXE-36" vertex="1">
          <mxGeometry y="165" width="160" height="210" as="geometry" />
        </mxCell>
      </root>
    </mxGraphModel>
  </diagram>
</mxfile>
